<?xml version="1.0" encoding="UTF-8"?><svg id="a" xmlns="http://www.w3.org/2000/svg" xmlns:xlink="http://www.w3.org/1999/xlink" viewBox="0 0 1247 1868"><defs><filter id="b" filterUnits="userSpaceOnUse"><feOffset dx="0" dy="7"/><feGaussianBlur result="c" stdDeviation="5"/><feFlood flood-color="#000" flood-opacity=".2"/><feComposite in2="c" operator="in"/><feComposite in="SourceGraphic"/></filter><radialGradient id="d" cx="-6727.06" cy="9582.89" fx="-6727.06" fy="9582.89" r="1039.5" gradientTransform="translate(-4811.36 8090.66) rotate(83.98) scale(1 -.66)" gradientUnits="userSpaceOnUse"><stop offset="0" stop-color="#fff44f"/><stop offset=".06" stop-color="#ffe847"/><stop offset=".17" stop-color="#ffc830"/><stop offset=".3" stop-color="#ff980e"/><stop offset=".36" stop-color="#ff8b16"/><stop offset=".46" stop-color="#ff672a"/><stop offset=".57" stop-color="#ff3647"/><stop offset=".74" stop-color="#e31587"/></radialGradient><radialGradient id="f" cx="-7251.28" cy="8638.53" fx="-7251.28" fy="8638.53" r="703.41" gradientTransform="translate(7978.7 9326) scale(1 -1)" gradientUnits="userSpaceOnUse"><stop offset=".13" stop-color="#fff44f"/><stop offset=".25" stop-color="#ffdc3e"/><stop offset=".51" stop-color="#ff9d12"/><stop offset=".53" stop-color="#ff980e"/></radialGradient><radialGradient id="h" cx="-7371.39" cy="8054.48" fx="-7371.39" fy="8054.48" r="695.47" gradientTransform="translate(9823.42 10881.33) scale(1.23 -1.23)" gradientUnits="userSpaceOnUse"><stop offset="0" stop-color="#00ccda"/><stop offset=".22" stop-color="#0083ff"/><stop offset=".26" stop-color="#007af9"/><stop offset=".33" stop-color="#0060e8"/><stop offset=".33" stop-color="#005fe7"/><stop offset=".44" stop-color="#2639ad"/><stop offset=".52" stop-color="#401e84"/><stop offset=".57" stop-color="#4a1475"/></radialGradient><radialGradient id="j" cx="-7013.54" cy="8418.18" fx="-7013.54" fy="8418.18" r="970.97" gradientTransform="translate(7978.7 9326) scale(1 -1)" gradientUnits="userSpaceOnUse"><stop offset=".13" stop-color="#ffbd4f"/><stop offset=".19" stop-color="#ffac31"/><stop offset=".25" stop-color="#ff9d17"/><stop offset=".28" stop-color="#ff980e"/><stop offset=".4" stop-color="#ff563b"/><stop offset=".47" stop-color="#ff3750"/><stop offset=".71" stop-color="#f5156c"/><stop offset=".78" stop-color="#eb0878"/><stop offset=".86" stop-color="#e50080"/></radialGradient><radialGradient id="l" cx="-7368.34" cy="8021.22" fx="-7368.34" fy="8021.22" r="970.97" gradientTransform="translate(7978.7 9326) scale(1 -1)" gradientUnits="userSpaceOnUse"><stop offset=".3" stop-color="#960e18"/><stop offset=".35" stop-color="#b11927" stop-opacity=".74"/><stop offset=".43" stop-color="#db293d" stop-opacity=".34"/><stop offset=".5" stop-color="#f5334b" stop-opacity=".09"/><stop offset=".53" stop-color="#ff3750" stop-opacity="0"/></radialGradient><radialGradient id="n" cx="-7380.6" cy="8457.91" fx="-7380.6" fy="8457.91" r="332.59" gradientTransform="translate(7978.7 9326) scale(1 -1)" gradientUnits="userSpaceOnUse"><stop offset="0" stop-color="#ffe226"/><stop offset=".12" stop-color="#ffdb27"/><stop offset=".29" stop-color="#ffc82a"/><stop offset=".5" stop-color="#ffa930"/><stop offset=".73" stop-color="#ff7e37"/><stop offset=".79" stop-color="#ff7139"/></radialGradient><radialGradient id="p" cx="-7119.17" cy="8668.87" fx="-7119.17" fy="8668.87" r="1419.03" gradientTransform="translate(7978.7 9326) scale(1 -1)" gradientUnits="userSpaceOnUse"><stop offset=".11" stop-color="#fff44f"/><stop offset=".46" stop-color="#ff980e"/><stop offset=".62" stop-color="#ff5634"/><stop offset=".72" stop-color="#ff3647"/><stop offset=".9" stop-color="#e31587"/></radialGradient><radialGradient id="r" cx="-7388.43" cy="8334.72" fx="-7388.43" fy="8334.72" r="885.93" gradientTransform="translate(7978.7 9326) scale(1 -1)" gradientUnits="userSpaceOnUse"><stop offset=".14" stop-color="#fff44f"/><stop offset=".48" stop-color="#ff980e"/><stop offset=".59" stop-color="#ff5634"/><stop offset=".66" stop-color="#ff3647"/><stop offset=".9" stop-color="#e31587"/></radialGradient><radialGradient id="t" cx="-7154.58" cy="8282.87" fx="-7154.58" fy="8282.87" r="969.64" gradientTransform="translate(7978.7 9326) scale(1 -1)" gradientUnits="userSpaceOnUse"><stop offset=".09" stop-color="#fff44f"/><stop offset=".23" stop-color="#ffe141"/><stop offset=".51" stop-color="#ffaf1e"/><stop offset=".63" stop-color="#ff980e"/></radialGradient><linearGradient id="v" x1="991.54" y1="945.99" x2="333.64" y2="1603.9" gradientUnits="userSpaceOnUse"><stop offset=".17" stop-color="#fff44f" stop-opacity=".8"/><stop offset=".27" stop-color="#fff44f" stop-opacity=".63"/><stop offset=".49" stop-color="#fff44f" stop-opacity=".22"/><stop offset=".6" stop-color="#fff44f" stop-opacity="0"/></linearGradient><radialGradient id="w" cx="-7143.15" cy="8494.98" fx="-7143.15" fy="8494.98" r="212.45" xlink:href="#h"/><radialGradient id="y" cx="-7037.84" cy="10117.98" fx="-7037.84" fy="10117.98" r="317.54" xlink:href="#d"/><radialGradient id="aa" cx="-6917.08" cy="8951.89" fx="-6917.08" fy="8951.89" r="193.23" xlink:href="#f"/><radialGradient id="ac" cx="-6853.19" cy="8883.64" fx="-6853.19" fy="8883.64" r="296.61" xlink:href="#j"/><radialGradient id="ae" cx="-6961.57" cy="8762.38" fx="-6961.57" fy="8762.38" r="296.61" xlink:href="#l"/><radialGradient id="ag" cx="-6965.32" cy="8895.78" fx="-6965.32" fy="8895.78" r="101.6" xlink:href="#n"/><radialGradient id="ai" cx="-6885.46" cy="8960.22" fx="-6885.46" fy="8960.22" r="433.48" xlink:href="#p"/><radialGradient id="ak" cx="-6967.71" cy="8858.15" fx="-6967.71" fy="8858.15" r="270.63" xlink:href="#r"/><radialGradient id="am" cx="-6896.27" cy="8842.31" fx="-6896.27" fy="8842.31" r="296.2" xlink:href="#t"/><linearGradient id="ao" x1="1129.87" y1="347.98" x2="928.89" y2="147.01" gradientTransform="translate(3.7 802) scale(1 -1)" xlink:href="#v"/><radialGradient id="aq" cx="-7069.33" cy="9482.52" fx="-7069.33" fy="9482.52" r="317.54" xlink:href="#d"/><radialGradient id="as" cx="-7344.08" cy="8938.44" fx="-7344.08" fy="8938.44" r="214.87" xlink:href="#f"/><radialGradient id="au" cx="-7484.59" cy="8484.77" fx="-7484.59" fy="8484.77" r="212.45" xlink:href="#h"/><radialGradient id="aw" cx="-7271.45" cy="8871.13" fx="-7271.45" fy="8871.13" r="296.61" xlink:href="#j"/><radialGradient id="ay" cx="-7379.84" cy="8749.86" fx="-7379.84" fy="8749.86" r="296.61" xlink:href="#l"/><radialGradient id="ba" cx="-7383.58" cy="8883.26" fx="-7383.58" fy="8883.26" r="101.6" xlink:href="#n"/><radialGradient id="bc" cx="-7303.72" cy="8947.71" fx="-7303.72" fy="8947.71" r="433.48" xlink:href="#p"/><radialGradient id="be" cx="-7385.98" cy="8845.63" fx="-7385.98" fy="8845.63" r="270.63" xlink:href="#r"/><radialGradient id="bg" cx="-7314.54" cy="8829.79" fx="-7314.54" fy="8829.79" r="296.2" xlink:href="#t"/><linearGradient id="bi" x1="715.31" y1="466.53" x2="514.33" y2="667.51" xlink:href="#v"/><linearGradient id="bj" x1="454.27" y1="717.01" x2="218.08" y2="489.13" gradientTransform="translate(3.7 802) scale(1 -1)" gradientUnits="userSpaceOnUse"><stop offset=".05" stop-color="#fff44f"/><stop offset=".11" stop-color="#ffe847"/><stop offset=".23" stop-color="#ffc830"/><stop offset=".37" stop-color="#ff980e"/><stop offset=".4" stop-color="#ff8b16"/><stop offset=".46" stop-color="#ff672a"/><stop offset=".53" stop-color="#ff3647"/><stop offset=".7" stop-color="#e31587"/></linearGradient><radialGradient id="bl" cx="-7531.62" cy="9253.89" fx="-7531.62" fy="9253.89" r="296.61" xlink:href="#j"/><radialGradient id="bn" cx="-7640.01" cy="9132.63" fx="-7640.01" fy="9132.63" r="296.61" xlink:href="#l"/><radialGradient id="bp" cx="-7604.25" cy="9321.2" fx="-7604.25" fy="9321.2" r="214.87" xlink:href="#f"/><radialGradient id="br" cx="-7672.81" cy="9055.15" fx="-7672.81" fy="9055.15" r="141.23" gradientTransform="translate(7978.7 9326) scale(1 -1)" gradientUnits="userSpaceOnUse"><stop offset=".35" stop-color="#3a8ee6"/><stop offset=".47" stop-color="#5c79f0"/><stop offset=".67" stop-color="#9059ff"/><stop offset="1" stop-color="#c139e6"/></radialGradient><radialGradient id="bt" cx="-7654.69" cy="9208.3" fx="-7654.69" fy="9208.3" r="74.88" gradientTransform="translate(10327.54 8849.26) rotate(-13.59) scale(1 -1.17)" gradientUnits="userSpaceOnUse"><stop offset=".21" stop-color="#9059ff" stop-opacity="0"/><stop offset=".28" stop-color="#8c4ff3" stop-opacity=".06"/><stop offset=".75" stop-color="#7716a8" stop-opacity=".45"/><stop offset=".97" stop-color="#6e008b" stop-opacity=".6"/></radialGradient><radialGradient id="bv" cx="-7643.75" cy="9266.03" fx="-7643.75" fy="9266.03" r="101.6" xlink:href="#n"/><radialGradient id="bx" cx="-7563.89" cy="9330.47" fx="-7563.89" fy="9330.47" r="433.48" xlink:href="#p"/><radialGradient id="bz" cx="-7477.1" cy="9149.67" fx="-7477.1" fy="9149.67" r="317.54" xlink:href="#d"/><radialGradient id="cb" cx="-7646.14" cy="9228.39" fx="-7646.14" fy="9228.39" r="270.63" xlink:href="#r"/><radialGradient id="cd" cx="-7574.71" cy="9212.56" fx="-7574.71" fy="9212.56" r="296.2" xlink:href="#t"/><linearGradient id="cf" x1="451.44" y1="718.23" x2="250.46" y2="517.26" gradientTransform="translate(3.7 802) scale(1 -1)" xlink:href="#v"/><linearGradient id="ch" x1="298.51" y1="346.76" x2="62.32" y2="118.88" xlink:href="#bj"/><radialGradient id="cj" cx="-7687.38" cy="8883.64" fx="-7687.38" fy="8883.64" r="296.61" xlink:href="#j"/><radialGradient id="cl" cx="-7795.77" cy="8762.38" fx="-7795.77" fy="8762.38" r="296.61" xlink:href="#l"/><radialGradient id="cn" cx="-7760.01" cy="8950.95" fx="-7760.01" fy="8950.95" r="214.87" xlink:href="#f"/><radialGradient id="cp" cx="-7828.58" cy="8684.9" fx="-7828.58" fy="8684.9" r="141.23" xlink:href="#br"/><radialGradient id="cr" cx="-7871.42" cy="8952.2" fx="-7871.42" fy="8952.2" r="192.64" gradientTransform="translate(8804.75 11044.46) scale(1.01 -1.18) skewX(-4.18)" xlink:href="#h"/><radialGradient id="ct" cx="-7799.51" cy="8895.78" fx="-7799.51" fy="8895.78" r="101.6" xlink:href="#n"/><radialGradient id="cv" cx="-7719.65" cy="8960.22" fx="-7719.65" fy="8960.22" r="433.48" xlink:href="#p"/><radialGradient id="cx" cx="-7125.45" cy="8854.59" fx="-7125.45" fy="8854.59" r="317.54" xlink:href="#d"/><radialGradient id="cz" cx="-7801.91" cy="8858.15" fx="-7801.91" fy="8858.15" r="270.63" xlink:href="#r"/><radialGradient id="db" cx="-7730.47" cy="8842.31" fx="-7730.47" fy="8842.31" r="296.2" xlink:href="#t"/><linearGradient id="dd" x1="295.68" y1="347.98" x2="94.7" y2="147.01" gradientTransform="translate(3.7 802) scale(1 -1)" xlink:href="#v"/><radialGradient id="df" cx="-14618.2" cy="9229" fx="-14627.46" fy="9229" r="145.24" gradientTransform="translate(11625.08 10952.33) rotate(2.55) scale(.76 -1.12)" gradientUnits="userSpaceOnUse"><stop offset=".04" stop-color="#ffea00"/><stop offset=".12" stop-color="#ffde00"/><stop offset=".25" stop-color="#ffbf00"/><stop offset=".43" stop-color="#ff8e00"/><stop offset=".77" stop-color="#ff272d"/><stop offset=".87" stop-color="#e0255a"/><stop offset=".95" stop-color="#cc2477"/><stop offset="1" stop-color="#c42482"/></radialGradient><radialGradient id="dg" cx="-7310.12" cy="8799.66" fx="-7310.12" fy="8799.66" r="254.88" xlink:href="#h"/><linearGradient id="di" x1="829.07" y1="527.58" x2="767.4" y2="729.31" gradientTransform="translate(0 802) scale(1 -1)" gradientUnits="userSpaceOnUse"><stop offset="0" stop-color="#000f43" stop-opacity=".4"/><stop offset=".48" stop-color="#001962" stop-opacity=".17"/><stop offset="1" stop-color="#002079" stop-opacity="0"/></linearGradient><radialGradient id="dj" cx="-8253.99" cy="7597.47" fx="-8253.99" fy="7597.47" r="85.97" gradientTransform="translate(10101.82 10520.78) rotate(5.76) scale(1.23 -1.23)" gradientUnits="userSpaceOnUse"><stop offset="0" stop-color="#ffea00"/><stop offset=".5" stop-color="#ff272d"/><stop offset="1" stop-color="#c42482"/></radialGradient><radialGradient id="dk" cx="-8261.77" cy="7679.9" fx="-8261.77" fy="7679.9" r="143.57" gradientTransform="translate(10101.82 10520.78) rotate(5.76) scale(1.23 -1.23)" gradientUnits="userSpaceOnUse"><stop offset="0" stop-color="#ffe900"/><stop offset=".16" stop-color="#ffaf0e"/><stop offset=".32" stop-color="#ff7a1b"/><stop offset=".47" stop-color="#ff4e26"/><stop offset=".62" stop-color="#ff2c2e"/><stop offset=".76" stop-color="#ff1434"/><stop offset=".89" stop-color="#ff0538"/><stop offset="1" stop-color="#ff0039"/></radialGradient><radialGradient id="dl" cx="-8241.47" cy="7546.82" fx="-8241.47" fy="7546.82" r="131.74" gradientTransform="translate(10101.82 10520.78) rotate(5.76) scale(1.23 -1.23)" gradientUnits="userSpaceOnUse"><stop offset="0" stop-color="#ff272d"/><stop offset=".5" stop-color="#c42482"/><stop offset=".99" stop-color="#620700"/></radialGradient><radialGradient id="dm" cx="885.29" cy="635.54" fx="894.31" fy="635.54" r="251.97" gradientTransform="translate(0 802) scale(1 -1)" gradientUnits="userSpaceOnUse"><stop offset=".16" stop-color="#ffea00"/><stop offset=".23" stop-color="#ffde00"/><stop offset=".36" stop-color="#ffbf00"/><stop offset=".54" stop-color="#ff8e00"/><stop offset=".76" stop-color="#ff272d"/><stop offset=".8" stop-color="#f92433"/><stop offset=".84" stop-color="#e91c45"/><stop offset=".89" stop-color="#cf0e62"/><stop offset=".94" stop-color="#b5007f"/></radialGradient><radialGradient id="dn" cx="866.34" cy="762.06" fx="866.34" fy="762.06" r="297.53" gradientTransform="translate(0 802) scale(1 -1)" gradientUnits="userSpaceOnUse"><stop offset=".28" stop-color="#ffea00"/><stop offset=".4" stop-color="#fd0"/><stop offset=".63" stop-color="#ffba00"/><stop offset=".86" stop-color="#ff9100"/><stop offset=".93" stop-color="#ff6711"/><stop offset=".99" stop-color="#ff4a1d"/></radialGradient><linearGradient id="do" x1="-8473.9" y1="7648.06" x2="-8382.3" y2="7671.41" gradientTransform="translate(10101.82 10520.78) rotate(5.76) scale(1.23 -1.23)" gradientUnits="userSpaceOnUse"><stop offset="0" stop-color="#c42482" stop-opacity=".5"/><stop offset=".47" stop-color="#ff272d" stop-opacity=".5"/><stop offset=".49" stop-color="#ff2c2c" stop-opacity=".51"/><stop offset=".68" stop-color="#ff7a1a" stop-opacity=".72"/><stop offset=".83" stop-color="#ffb20d" stop-opacity=".87"/><stop offset=".94" stop-color="#ffd605" stop-opacity=".96"/><stop offset="1" stop-color="#ffe302"/></linearGradient><linearGradient id="dp" x1="753.53" y1="2030.41" x2="735.95" y2="2075.46" gradientTransform="translate(-251.61 2068.14) rotate(5.74) scale(1 -1)" gradientUnits="userSpaceOnUse"><stop offset="0" stop-color="#891551" stop-opacity=".6"/><stop offset="1" stop-color="#c42482" stop-opacity="0"/></linearGradient><linearGradient id="dq" x1="464.17" y1="365.36" x2="494.49" y2="330.93" gradientTransform="translate(227.53 507.73) rotate(5.74) scale(1 -1)" gradientUnits="userSpaceOnUse"><stop offset="0" stop-color="#891551" stop-opacity=".5"/><stop offset=".48" stop-color="#ff272d" stop-opacity=".5"/><stop offset="1" stop-color="#ff272d" stop-opacity="0"/></linearGradient><linearGradient id="dr" x1="521.52" y1="305.53" x2="521.54" y2="329.62" gradientTransform="translate(227.53 507.73) rotate(5.74) scale(1 -1)" gradientUnits="userSpaceOnUse"><stop offset="0" stop-color="#c42482"/><stop offset=".08" stop-color="#c42482" stop-opacity=".81"/><stop offset=".21" stop-color="#c42482" stop-opacity=".56"/><stop offset=".33" stop-color="#c42482" stop-opacity=".36"/><stop offset=".45" stop-color="#c42482" stop-opacity=".2"/><stop offset=".56" stop-color="#c42482" stop-opacity=".09"/><stop offset=".67" stop-color="#c42482" stop-opacity=".02"/><stop offset=".77" stop-color="#c42482" stop-opacity="0"/></linearGradient><linearGradient id="ds" x1="854.8" y1="750.84" x2="953.26" y2="530.66" gradientTransform="translate(0 802) scale(1 -1)" gradientUnits="userSpaceOnUse"><stop offset="0" stop-color="#fff14f"/><stop offset=".27" stop-color="#ffee4c"/><stop offset=".45" stop-color="#ffe643"/><stop offset=".61" stop-color="#ffd834"/><stop offset=".76" stop-color="#ffc41e"/><stop offset=".89" stop-color="#ffab02"/><stop offset=".9" stop-color="#ffa900"/><stop offset=".95" stop-color="#ffa000"/><stop offset="1" stop-color="#ff9100"/></linearGradient><linearGradient id="dt" x1="874.24" y1="624.21" x2="827.6" y2="498.98" gradientTransform="translate(0 802) scale(1 -1)" gradientUnits="userSpaceOnUse"><stop offset="0" stop-color="#ff8e00"/><stop offset=".04" stop-color="#ff8e00" stop-opacity=".86"/><stop offset=".08" stop-color="#ff8e00" stop-opacity=".73"/><stop offset=".13" stop-color="#ff8e00" stop-opacity=".63"/><stop offset=".18" stop-color="#ff8e00" stop-opacity=".56"/><stop offset=".23" stop-color="#ff8e00" stop-opacity=".51"/><stop offset=".28" stop-color="#ff8e00" stop-opacity=".5"/><stop offset=".39" stop-color="#ff8e00" stop-opacity=".48"/><stop offset=".52" stop-color="#ff8e00" stop-opacity=".42"/><stop offset=".68" stop-color="#ff8e00" stop-opacity=".31"/><stop offset=".84" stop-color="#ff8e00" stop-opacity=".17"/><stop offset="1" stop-color="#ff8e00" stop-opacity="0"/></linearGradient></defs><path d="m1062.53,1123.55c-7.16-17.23-16.93-34.94-27.99-51.38-1.34-2-2.71-3.98-4.09-5.94-.58-.82-1.16-1.63-1.74-2.44-1.49-2.08-3-4.12-4.53-6.14-1.29-1.71-2.59-3.41-3.91-5.08-1.05-1.33-2.11-2.65-3.17-3.95-1.21-1.48-2.42-2.93-3.64-4.36-14.85-17.46-30.45-31.41-44.37-38.61,0,0,0,0,0,0,0,0,0,0,0,0,22.93,44.41,38.84,92.1,47.17,141.37v.44l.04.22c-52.67-131.21-141.94-184.15-214.85-299.39-3.69-5.83-7.38-11.67-10.97-17.83-.13-.21-.24-.42-.36-.63-.61-1.06-1.18-2.08-1.72-3.07-1.13-2.08-2.15-4.06-3.05-5.91-3.02-5.86-5.36-12.05-6.95-18.45,0-.61-.45-1.13-1.06-1.2-.29-.08-.59-.08-.88,0-.06,0-.16.11-.23.13s-.23.13-.34.18l.18-.31h0s0,0,0,0c-1.75,1.02-3.47,2.06-5.18,3.11-.57.35-1.14.71-1.71,1.07-1.13.7-2.25,1.4-3.36,2.11-.69.44-1.37.89-2.05,1.33-.98.64-1.95,1.27-2.92,1.91-.73.49-1.46.98-2.19,1.48-.89.61-1.78,1.21-2.66,1.83-.76.53-1.52,1.06-2.27,1.6-.82.58-1.64,1.17-2.46,1.76-.79.57-1.57,1.14-2.34,1.71-.75.56-1.5,1.12-2.25,1.68-.82.61-1.63,1.23-2.44,1.85-.67.51-1.33,1.03-1.99,1.54-.87.68-1.74,1.36-2.59,2.04-.53.42-1.05.85-1.58,1.28-.97.79-1.94,1.57-2.9,2.37-.18.15-.35.3-.53.45-31.6,26.34-55.68,57.12-73.63,88.25-9.9-.76-19.91-1.14-30.01-1.14-110.5,0-210.28,46.23-281.24,120.49-5.34-31.31-4.51-70.46-3.79-81.41-.07.03-.13.06-.19.08,0-.07,0-.14.01-.2-5.46,2.19-10.67,4.96-15.55,8.26-16.3,11.63-31.53,24.68-45.52,39-15.94,16.16-30.5,33.63-43.52,52.22,0,0-.01.01-.02.02h0s0-.01,0-.01h0c-29.94,42.45-51.18,90.42-62.49,141.12-.11.48-4.33,18.91-7.48,41.9-.62,4.16-1.19,8.32-1.71,12.49-2.11,14.24-3.35,28.6-3.68,43h0v2.41c.02,17.87,1.04,35.5,3.01,52.84.5,4.4,1.06,8.78,1.69,13.15.47,3.27.97,6.54,1.5,9.79.75,4.53,1.56,9.04,2.43,13.52.59,3.02,1.21,6.03,1.86,9.03.59,2.74,1.21,5.47,1.85,8.19,2.4,10.23,5.15,20.34,8.21,30.3.35,1.14.71,2.28,1.06,3.41,1.91,6.04,3.94,12.03,6.09,17.97.48,1.31.96,2.62,1.44,3.93,1.47,3.96,3,7.89,4.57,11.79.58,1.44,1.17,2.87,1.76,4.3.84,2.01,1.69,4.02,2.55,6.02,2.94,6.8,6.04,13.52,9.29,20.15.83,1.7,1.67,3.39,2.53,5.07,2.6,5.13,5.28,10.21,8.06,15.24.8,1.44,1.61,2.88,2.42,4.32,4.23,7.45,8.65,14.78,13.27,21.98,1.01,1.57,2.03,3.14,3.06,4.7,2.06,3.12,4.15,6.22,6.29,9.29,1.68,2.43,3.4,4.83,5.13,7.22,2.38,3.3,4.8,6.56,7.27,9.79.53.69,1.05,1.37,1.58,2.06,2.96,3.83,5.97,7.61,9.05,11.35,1.4,1.7,2.81,3.4,4.24,5.08,3.49,4.12,7.06,8.18,10.69,12.18.22.25.45.49.67.74,3.03,3.32,6.11,6.59,9.23,9.83,1.95,2.02,3.92,4.03,5.91,6.01,1.32,1.32,2.64,2.62,3.98,3.92,1.33,1.3,2.68,2.59,4.02,3.88,8.1,7.7,16.47,15.12,25.1,22.23,2.58,2.13,5.19,4.22,7.82,6.29,6.16,4.86,12.44,9.56,18.85,14.11,2.56,1.82,5.15,3.61,7.75,5.38,1.01.68,2.02,1.36,3.03,2.04,1.65,1.1,3.3,2.19,4.96,3.27,5.07,3.3,10.2,6.49,15.41,9.6,4.39,2.62,8.83,5.17,13.31,7.64,2.7,1.49,5.42,2.97,8.15,4.41,1.66.88,3.33,1.74,5.01,2.6,2.53,1.29,5.08,2.56,7.64,3.81,4.21,2.06,8.45,4.06,12.73,5.99,1.72.78,3.45,1.54,5.18,2.3,3.46,1.51,6.95,2.98,10.45,4.41,1.75.71,3.51,1.42,5.27,2.11,3.53,1.39,7.07,2.73,10.64,4.04,1.78.65,3.57,1.29,5.37,1.92,7.18,2.52,14.43,4.87,21.77,7.05,5.5,1.63,11.04,3.16,16.62,4.59,37.21,9.54,76.22,14.6,116.42,14.56,7.01,0,13.98-.17,20.93-.48.16,0,.32-.01.48-.02,22.69-1.05,45.01-3.74,66.82-7.96,3.68-.71,7.34-1.47,10.98-2.26,11.02-2.41,21.9-5.21,32.62-8.38,2-.59,3.99-1.19,5.97-1.81,8.09-2.51,16.1-5.24,24-8.18,6.33-2.35,12.59-4.84,18.79-7.45,3.1-1.31,6.18-2.65,9.25-4.02,4.6-2.06,9.16-4.19,13.68-6.4,3.01-1.47,6.01-2.97,8.99-4.5,2.98-1.53,5.94-3.1,8.88-4.69,11.77-6.38,23.24-13.25,34.38-20.6,1.39-.92,2.78-1.84,4.16-2.78,66.37-44.77,120.86-106.36,157.03-179.33.03-.07.06-.13.1-.2,2.9-5.86,5.68-11.79,8.34-17.8.16-.36.32-.72.48-1.09,3.19-7.24,6.19-14.58,9.02-22.01.3-.79.6-1.57.89-2.36,2.05-5.48,4-11.01,5.85-16.6.37-1.13.75-2.26,1.11-3.4.67-2.07,1.32-4.15,1.96-6.23.4-1.3.8-2.61,1.19-3.92.58-1.93,1.14-3.87,1.69-5.81.42-1.48.83-2.96,1.24-4.45.94-3.43,1.83-6.87,2.7-10.33,2.16-8.68,4.08-17.46,5.75-26.35.24-1.28.48-2.56.71-3.84.2-1.12.41-2.24.6-3.36.51-3.93.96-7.84,1.4-11.77.24-2.08.47-4.16.71-6.26,9.59-79.29-.79-159.72-30.21-233.97Z" fill="#f9b014" filter="url(#b)"/><path id="e" d="m795.86,1124.01c17,16.7,31.57,35.72,43.26,56.48,2.56,1.93,4.95,3.86,6.98,5.72,105.6,97.34,50.27,234.94,46.15,244.74,85.78-70.67,140.6-175.19,124.13-283.07-52.68-131.35-141.99-184.29-214.92-299.56-3.69-5.83-7.38-11.67-10.97-17.83-2.05-3.52-3.7-6.69-5.13-9.61-3.02-5.86-5.36-12.05-6.95-18.45,0-.61-.45-1.13-1.06-1.2-.29-.08-.59-.08-.88,0-.06,0-.16.11-.23.13s-.23.13-.34.18c-18.01,8.54-124.84,177.69,19.95,322.48Z" fill="url(#d)"/><path id="g" d="m836.2,1178.3c1.01.71,1.95,1.42,2.9,2.13-11.7-20.75-26.26-39.74-43.26-56.42-144.76-144.79-37.94-313.93-19.92-322.52l.18-.26c-116.99,68.5-156.68,195.31-160.34,258.74,5.43-.37,10.82-.83,16.37-.83,84.5.15,162.42,45.66,204.08,119.18Z" fill="url(#f)"/><path id="i" d="m630.82,1701.52c215.56,0,390.18-175.57,390.18-392.05s-174.62-392.05-389.97-392.05-389.97,175.57-389.97,392.05c-.42,216.69,174.41,392.05,389.76,392.05Z" fill="url(#h)"/><path id="k" d="m1062.53,1123.55c-20.24-48.69-61.29-101.27-93.44-117.89,22.93,44.41,38.84,92.1,47.17,141.37v.44l.08.49c35.9,102.73,30.71,215.36-14.49,314.35-53.38,114.54-182.59,231.94-384.85,226.23-218.54-6.19-411-168.35-446.98-380.75-6.55-33.49,0-50.47,3.29-77.69-4.49,21.14-7,42.66-7.49,64.27v2.4c.23,257.25,208.95,465.6,466.19,465.38,226.54-.2,420.09-163.37,458.6-386.61.78-6.01,1.42-11.96,2.12-18.03,9.59-79.29-.79-159.72-30.21-233.97Z" fill="url(#j)"/><path id="m" d="m1062.53,1123.55c-20.24-48.69-61.29-101.27-93.44-117.89,22.93,44.41,38.84,92.1,47.17,141.37v.44l.08.49c35.9,102.73,30.71,215.36-14.49,314.35-53.38,114.54-182.59,231.94-384.85,226.23-218.54-6.19-411-168.35-446.98-380.75-6.55-33.49,0-50.47,3.29-77.69-4.49,21.14-7,42.66-7.49,64.27v2.4c.23,257.25,208.95,465.6,466.19,465.38,226.54-.2,420.09-163.37,458.6-386.61.78-6.01,1.42-11.96,2.12-18.03,9.59-79.29-.79-159.72-30.21-233.97Z" fill="url(#l)"/><path id="o" d="m465.86,1093.87c3.77,2.4,6.89,4.49,9.61,6.38-10.61-37.15-11.07-76.46-1.31-113.84-42.96,20.81-81.14,50.32-112.11,86.65,2.27-.06,69.83-1.27,103.81,20.81Z" fill="url(#n)"/><path id="q" d="m170.1,1307.8c35.94,212.4,228.44,374.56,446.98,380.75,202.25,5.72,331.47-111.69,384.85-226.23,45.2-98.99,50.39-211.62,14.49-314.35v-.44c0-.35-.07-.55,0-.44l.08.78c16.52,107.88-38.35,212.4-124.13,283.07l-.26.6c-167.14,136.12-327.09,82.13-359.47,60.09-2.26-1.08-4.52-2.21-6.78-3.38-97.45-46.58-137.71-135.36-129.08-211.51-47.26.7-90.5-26.5-110.33-69.4,52.01-31.87,116.84-34.47,171.24-6.87,55.16,25.04,117.92,27.51,174.88,6.87-.18-3.79-81.24-36.05-112.84-67.18-16.88-16.64-24.9-24.66-32-30.68-3.84-3.25-7.85-6.29-12.02-9.11-2.76-1.89-5.88-3.93-9.61-6.38-33.97-22.09-101.54-20.87-103.77-20.81h-.22c-18.46-23.4-17.16-100.55-16.1-116.67-5.46,2.19-10.67,4.96-15.55,8.26-16.3,11.63-31.53,24.68-45.52,39-16,16.12-30.63,33.56-43.72,52.12v.07-.08c-29.94,42.45-51.18,90.42-62.49,141.12-.23.95-16.78,73.29-8.62,110.81Z" fill="url(#p)"/><path id="s" d="m846.03,1186.15c-2.03-1.86-4.42-3.79-6.98-5.72-.95-.71-1.89-1.42-2.9-2.13-32.76-22.69-72.78-32.41-112.3-27.27,167.52,83.76,122.58,372.2-109.59,361.32-20.67-.85-41.1-4.79-60.6-11.69-4.56-1.71-9.12-3.57-13.68-5.6-2.63-1.2-5.26-2.4-7.86-3.75l.32.2c32.37,22.1,192.28,76.09,359.47-60.09l.26-.6c4.17-9.73,59.5-147.37-46.15-244.68Z" fill="url(#r)"/><path id="u" d="m422.46,1338.88s21.5-80.12,153.94-80.12c14.31,0,55.28-39.96,56.01-51.54-56.95,20.63-119.72,18.17-174.88-6.87-54.4-27.59-119.22-24.99-171.24,6.87,19.84,42.9,63.07,70.1,110.33,69.4-8.63,76.15,31.63,164.94,129.08,211.51,2.18,1.05,4.22,2.18,6.45,3.17-56.88-29.38-103.84-84.95-109.71-152.42Z" fill="url(#t)"/><path d="m1062.53,1123.55c-20.24-48.69-61.29-101.27-93.44-117.89,22.93,44.41,38.84,92.1,47.17,141.37l.08.78c-52.66-131.29-141.96-184.23-214.9-299.5-3.69-5.83-7.38-11.67-10.97-17.83-2.05-3.52-3.7-6.69-5.13-9.61-3.02-5.86-5.36-12.05-6.95-18.45,0-.61-.45-1.13-1.06-1.2-.29-.08-.59-.08-.88,0-.06,0-.16.11-.23.13s-.23.13-.34.18l.18-.31c-52.88,30.96-89.92,73.83-115.02,117.38,177.28,13.59,321.43,146.37,353.32,318.78-14.68,74.46-60.35,142.75-122.02,193.56l-.26.6-.19-.11.26-.6c4.17-9.73,59.5-147.37-46.15-244.68-2.03-1.86-4.42-3.79-6.98-5.72-.95-.71-1.89-1.42-2.9-2.13-2.62-1.82-5.3-3.54-8.01-5.19-.26-.16-.52-.31-.78-.46-2.45-1.47-4.94-2.88-7.46-4.21-.33-.17-.65-.35-.98-.53-5.53-2.88-11.2-5.43-16.99-7.64-.43-.16-.86-.32-1.29-.48-2.45-.91-4.92-1.76-7.41-2.55-.54-.17-1.08-.35-1.62-.51-5.79-1.77-11.67-3.21-17.63-4.32-.62-.12-1.25-.21-1.88-.32-2.34-.41-4.69-.76-7.05-1.06-.76-.1-1.53-.2-2.29-.29-2.84-.32-5.69-.59-8.55-.76-.16,0-.31-.03-.47-.04-2.98-.17-5.98-.23-8.97-.24-.86,0-1.72.02-2.58.04-2.2.03-4.4.11-6.6.24-.94.05-1.88.1-2.83.17-2.76.2-5.52.47-8.28.82-.19.02-.39.04-.58.06,167.52,83.76,122.58,372.2-109.59,361.32-20.67-.85-41.1-4.79-60.6-11.69-4.56-1.71-9.12-3.57-13.68-5.6-2.63-1.2-5.26-2.4-7.86-3.75l.32.2c-1.02-.49-2.05-1.02-3.07-1.53.9.45,1.8.9,2.74,1.32-56.88-29.39-103.84-84.96-109.71-152.43,0,0,21.5-80.12,153.94-80.12,14.31,0,55.28-39.96,56.01-51.54-.18-3.79-81.24-36.05-112.84-67.18-16.88-16.64-24.9-24.66-32-30.68-3.84-3.25-7.85-6.29-12.02-9.11-10.61-37.15-11.06-76.46-1.31-113.84-42.96,20.81-81.14,50.32-112.11,86.65h-.22c-18.46-23.4-17.16-100.55-16.1-116.67-5.46,2.19-10.67,4.96-15.55,8.26-16.3,11.63-31.53,24.68-45.52,39-15.95,16.17-30.51,33.64-43.54,52.24h0c-29.94,42.44-51.18,90.4-62.49,141.11l-.62,3.08c-.88,4.1-4.81,24.91-5.37,29.38-3.59,21.49-5.89,43.17-6.87,64.93v2.4c.23,257.25,208.95,465.6,466.19,465.38,226.54-.2,420.09-163.37,458.6-386.61.78-6.01,1.42-11.96,2.11-18.03,9.59-79.29-.79-159.72-30.21-233.97Z" fill="url(#v)"/><path id="x" d="m1023.38,684.81c65.85,0,119.19-53.63,119.19-119.76s-53.34-119.76-119.13-119.76-119.12,53.63-119.12,119.76c-.13,66.19,53.28,119.76,119.06,119.76Z" fill="url(#w)"/><path id="z" d="m1073.79,508.4c5.19,5.1,9.64,10.91,13.22,17.25.78.59,1.51,1.18,2.13,1.75,32.26,29.74,15.36,71.77,14.1,74.76,26.2-21.59,42.95-53.52,37.92-86.47-16.09-40.12-43.37-56.3-65.65-91.51-1.13-1.78-2.25-3.56-3.35-5.45-.63-1.08-1.13-2.04-1.57-2.94-.92-1.79-1.64-3.68-2.12-5.64,0-.19-.14-.34-.32-.37-.09-.02-.18-.02-.27,0-.02,0-.05.03-.07.04s-.07.04-.1.06c-5.5,2.61-38.13,54.28,6.09,98.51Z" fill="url(#y)"/><path id="ab" d="m1086.11,524.98c.31.22.59.43.88.65-3.57-6.34-8.02-12.14-13.22-17.24-44.22-44.23-11.59-95.9-6.09-98.52l.06-.08c-35.74,20.92-52.59,69.81,13,113.74,3.66,5.2,1.97,7.88,5.36,1.45Z" fill="url(#aa)"/><path id="ad" d="m1155.25,508.26c-6.18-14.88-18.72-30.94-28.54-36.01,7,13.56,11.86,28.13,14.41,43.19v.14l.03.15c10.97,31.38,9.38,65.79-4.43,96.03-16.31,34.99-55.78,70.85-117.56,69.11-66.76-1.89-125.55-51.43-136.54-116.31-2-10.23,0-15.42,1.01-23.73-1.37,6.46-2.14,13.03-2.29,19.63v.73c.07,78.58,63.83,142.23,142.41,142.16,69.2-.06,128.33-49.9,140.09-118.1.24-1.84.43-3.65.65-5.51,2.93-24.22-.24-48.79-9.23-71.47Z" fill="url(#ac)"/><path id="af" d="m1155.25,508.26c-6.18-14.88-18.72-30.94-28.54-36.01,7,13.56,11.86,28.13,14.41,43.19v.14l.03.15c10.97,31.38,9.38,65.79-4.43,96.03-16.31,34.99-55.78,70.85-117.56,69.11-66.76-1.89-125.55-51.43-136.54-116.31-2-10.23,0-15.42,1.01-23.73-1.37,6.46-2.14,13.03-2.29,19.63v.73c.07,78.58,63.83,142.23,142.41,142.16,69.2-.06,128.33-49.9,140.09-118.1.24-1.84.43-3.65.65-5.51,2.93-24.22-.24-48.79-9.23-71.47Z" fill="url(#ae)"/><path id="ah" d="m972.98,499.19c1.15.73,2.1,1.37,2.94,1.95-3.24-11.35-3.38-23.36-.4-34.78-13.12,6.36-24.79,15.37-34.25,26.47.69-.02,21.33-.39,31.71,6.36Z" fill="url(#ag)"/><path id="aj" d="m882.64,564.54c10.98,64.88,69.78,114.42,136.54,116.31,61.78,1.75,101.25-34.12,117.56-69.11,13.81-30.24,15.39-64.65,4.43-96.03v-.14c0-.11-.02-.17,0-.14l.03.24c5.05,32.95-11.71,64.88-37.92,86.47l-.08.18c-51.06,41.58-99.92,25.09-109.81,18.36-.69-.33-1.38-.67-2.07-1.03-29.77-14.23-42.07-41.35-39.43-64.61-14.44.21-27.64-8.1-33.7-21.2,15.89-9.73,35.69-10.53,52.31-2.1,16.85,7.65,36.02,8.4,53.42,2.1-.06-1.16-24.82-11.01-34.47-20.52-5.16-5.08-7.61-7.53-9.78-9.37-1.17-.99-2.4-1.92-3.67-2.78-.84-.58-1.8-1.2-2.94-1.95-10.38-6.75-31.02-6.38-31.7-6.36h-.07c-5.64-7.15-5.24-30.72-4.92-35.64-1.67.67-3.26,1.52-4.75,2.52-4.98,3.55-9.63,7.54-13.91,11.91-4.89,4.92-9.36,10.25-13.36,15.92v.02-.03c-9.15,12.97-15.64,27.62-19.09,43.11-.07.29-5.12,22.39-2.63,33.85Z" fill="url(#ai)"/><path id="al" d="m1089.12,527.38c-.62-.57-1.35-1.16-2.13-1.75-.29-.22-.58-.43-.88-.65-10.01-6.93-22.23-9.9-34.31-8.33,51.17,25.59,37.44,113.7-33.48,110.37-6.31-.26-12.56-1.46-18.51-3.57-1.39-.52-2.79-1.09-4.18-1.71-.8-.37-1.61-.73-2.4-1.15l.1.06c9.89,6.75,58.74,23.24,109.81-18.36l.08-.18c1.27-2.97,18.18-45.02-14.1-74.74Z" fill="url(#ak)"/><path id="an" d="m959.73,574.03s6.57-24.47,47.03-24.47c4.37,0,16.89-12.21,17.11-15.75-17.4,6.3-36.57,5.55-53.42-2.1-16.62-8.43-36.42-7.63-52.31,2.1,6.06,13.11,19.27,21.41,33.7,21.2-2.64,23.26,9.66,50.38,39.43,64.61.66.32,1.29.66,1.97.97-17.37-8.98-31.72-25.95-33.51-46.56Z" fill="url(#am)"/><path id="ap" d="m1155.25,508.26c-6.18-14.88-18.72-30.94-28.54-36.01,7,13.56,11.86,28.13,14.41,43.19l.03.24c-16.09-40.11-43.37-56.28-65.65-91.49-1.13-1.78-2.25-3.56-3.35-5.45-.63-1.08-1.13-2.04-1.57-2.94-.92-1.79-1.64-3.68-2.12-5.64,0-.19-.14-.34-.32-.37-.09-.02-.18-.02-.27,0-.02,0-.05.03-.07.04s-.07.04-.1.06l.06-.1c-35.74,20.92-52.59,70.94,13,113.74,1.66-.11,4.22,7.88,5.36,1.45-10.01-6.93-22.23-9.9-34.31-8.33,51.17,25.59,37.44,113.7-33.48,110.37-6.31-.26-12.56-1.46-18.51-3.57-1.39-.52-2.79-1.09-4.18-1.71-.8-.37-1.61-.73-2.4-1.15l.1.06c-.69-.33-1.38-.67-2.07-1.03.66.32,1.29.66,1.97.97-17.37-8.98-31.72-25.95-33.51-46.56,0,0,6.57-24.47,47.03-24.47,4.37,0,16.89-12.21,17.11-15.75-.06-1.16-24.82-11.01-34.47-20.52-5.16-5.08-7.61-7.53-9.78-9.37-1.17-.99-2.4-1.92-3.67-2.78-3.24-11.35-3.38-23.36-.4-34.78-13.12,6.36-24.79,15.37-34.25,26.47h-.07c-5.64-7.15-5.24-30.72-4.92-35.64-1.67.67-3.26,1.52-4.75,2.52-4.98,3.55-9.63,7.54-13.91,11.91-4.87,4.94-9.32,10.28-13.3,15.96v.02-.03c-9.15,12.97-15.64,27.62-19.09,43.11l-.19.94c-.27,1.25-1.47,7.61-1.64,8.98,0,.1,0-.11,0,0-1.1,6.56-1.8,13.19-2.1,19.83v.73c.07,78.58,63.83,142.23,142.41,142.16,69.2-.06,128.33-49.9,140.09-118.1.24-1.84.43-3.65.65-5.51,2.93-24.22-.24-48.79-9.23-71.47Zm-14.12,7.31l.03.15-.03-.15Z" fill="url(#ao)"/><path id="ar" d="m655.53,520.91c5.19,5.1,9.64,10.91,13.22,17.25.78.59,1.51,1.18,2.13,1.75,32.26,29.74,15.36,71.77,14.1,74.76,26.2-21.59,42.95-53.52,37.92-86.47-16.09-40.12-43.37-56.3-65.65-91.51-1.13-1.78-2.25-3.56-3.35-5.45-.63-1.08-1.13-2.04-1.57-2.94-.92-1.79-1.64-3.68-2.12-5.64,0-.19-.14-.34-.32-.37-.09-.02-.18-.02-.27,0-.02,0-.05.03-.07.04s-.07.04-.1.06c-5.5,2.61-38.13,54.28,6.09,98.51Z" fill="url(#aq)"/><path id="at" d="m667.85,537.5c.31.22.59.43.88.65-3.57-6.34-8.02-12.14-13.22-17.24-44.22-44.23-11.59-95.9-6.09-98.52l.06-.08c-35.74,20.92-47.86,59.66-48.98,79.04,1.66-.11,3.3-.25,5-.25,25.81.05,49.62,13.95,62.34,36.41Z" fill="url(#as)"/><path id="av" d="m605.11,697.33c65.85,0,119.19-53.63,119.19-119.76s-53.34-119.76-119.13-119.76-119.12,53.63-119.12,119.76c-.13,66.19,53.28,119.76,119.06,119.76Z" fill="url(#au)"/><path id="ax" d="m736.99,520.77c-6.18-14.88-18.72-30.94-28.54-36.01,7,13.56,11.86,28.13,14.41,43.19v.14l.03.15c10.97,31.38,9.38,65.79-4.43,96.03-16.31,34.99-55.78,70.85-117.56,69.11-66.76-1.89-125.55-51.43-136.54-116.31-2-10.23,0-15.42,1.01-23.73-1.37,6.46-2.14,13.03-2.29,19.63v.73c.07,78.58,63.83,142.23,142.41,142.16,69.2-.06,128.33-49.9,140.09-118.1.24-1.84.43-3.65.65-5.51,2.93-24.22-.24-48.79-9.23-71.47Z" fill="url(#aw)"/><path id="az" d="m736.99,520.77c-6.18-14.88-18.72-30.94-28.54-36.01,7,13.56,11.86,28.13,14.41,43.19v.14l.03.15c10.97,31.38,9.38,65.79-4.43,96.03-16.31,34.99-55.78,70.85-117.56,69.11-66.76-1.89-125.55-51.43-136.54-116.31-2-10.23,0-15.42,1.01-23.73-1.37,6.46-2.14,13.03-2.29,19.63v.73c.07,78.58,63.83,142.23,142.41,142.16,69.2-.06,128.33-49.9,140.09-118.1.24-1.84.43-3.65.65-5.51,2.93-24.22-.24-48.79-9.23-71.47Z" fill="url(#ay)"/><path id="bb" d="m554.72,511.7c1.15.73,2.1,1.37,2.94,1.95-3.24-11.35-3.38-23.36-.4-34.78-13.12,6.36-24.79,15.37-34.25,26.47.69-.02,21.33-.39,31.71,6.36Z" fill="url(#ba)"/><path id="bd" d="m464.37,577.06c10.98,64.88,69.78,114.42,136.54,116.31,61.78,1.75,101.25-34.12,117.56-69.11,13.81-30.24,15.39-64.65,4.43-96.03v-.14c0-.11-.02-.17,0-.14l.03.24c5.05,32.95-11.71,64.88-37.92,86.47l-.08.18c-51.06,41.58-99.92,25.09-109.81,18.36-.69-.33-1.38-.67-2.07-1.03-29.77-14.23-42.07-41.35-39.43-64.61-14.44.21-27.64-8.1-33.7-21.2,15.89-9.73,35.69-10.53,52.31-2.1,16.85,7.65,36.02,8.4,53.42,2.1-.06-1.16-24.82-11.01-34.47-20.52-5.16-5.08-7.61-7.53-9.78-9.37-1.17-.99-2.4-1.92-3.67-2.78-.84-.58-1.8-1.2-2.94-1.95-10.38-6.75-31.02-6.38-31.7-6.36h-.07c-5.64-7.15-5.24-30.72-4.92-35.64-1.67.67-3.26,1.52-4.75,2.52-4.98,3.55-9.63,7.54-13.91,11.91-4.89,4.92-9.36,10.25-13.36,15.92v.02-.03c-9.15,12.97-15.64,27.62-19.09,43.11-.07.29-5.12,22.39-2.63,33.85Z" fill="url(#bc)"/><path id="bf" d="m670.85,539.89c-.62-.57-1.35-1.16-2.13-1.75-.29-.22-.58-.43-.88-.65-10.01-6.93-22.23-9.9-34.31-8.33,51.17,25.59,37.44,113.7-33.48,110.37-6.31-.26-12.56-1.46-18.51-3.57-1.39-.52-2.79-1.09-4.18-1.71-.8-.37-1.61-.73-2.4-1.15l.1.06c9.89,6.75,58.74,23.24,109.81-18.36l.08-.18c1.27-2.97,18.18-45.02-14.1-74.74Z" fill="url(#be)"/><path id="bh" d="m541.47,586.55s6.57-24.47,47.03-24.47c4.37,0,16.89-12.21,17.11-15.75-17.4,6.3-36.57,5.55-53.42-2.1-16.62-8.43-36.42-7.63-52.31,2.1,6.06,13.11,19.27,21.41,33.7,21.2-2.64,23.26,9.66,50.38,39.43,64.61.66.32,1.29.66,1.97.97-17.37-8.98-31.72-25.95-33.51-46.56Z" fill="url(#bg)"/><path d="m736.99,520.77c-6.18-14.88-18.72-30.94-28.54-36.01,7,13.56,11.86,28.13,14.41,43.19l.03.24c-16.09-40.11-43.37-56.28-65.65-91.49-1.13-1.78-2.25-3.56-3.35-5.45-.63-1.08-1.13-2.04-1.57-2.94-.92-1.79-1.64-3.68-2.12-5.64,0-.19-.14-.34-.32-.37-.09-.02-.18-.02-.27,0-.02,0-.05.03-.07.04s-.07.04-.1.06l.06-.1c-16.15,9.46-27.47,22.55-35.14,35.86,54.15,4.15,98.19,44.71,107.93,97.38-4.48,22.75-18.44,43.61-37.27,59.13l-.08.18-.06-.03.08-.18c1.27-2.97,18.18-45.02-14.1-74.74-.62-.57-1.35-1.16-2.13-1.75-.29-.22-.58-.43-.88-.65-.8-.55-1.62-1.08-2.45-1.59-.08-.05-.16-.09-.24-.14-.75-.45-1.51-.88-2.28-1.29-.1-.05-.2-.11-.3-.16-1.69-.88-3.42-1.66-5.19-2.33-.13-.05-.26-.1-.39-.15-.75-.28-1.5-.54-2.26-.78-.17-.05-.33-.11-.5-.16-1.77-.54-3.57-.98-5.38-1.32-.19-.04-.38-.07-.57-.1-.72-.12-1.43-.23-2.15-.32-.23-.03-.47-.06-.7-.09-.87-.1-1.74-.18-2.61-.23-.05,0-.1,0-.14-.01-.91-.05-1.83-.07-2.74-.07-.26,0-.53,0-.79.01-.67.01-1.34.03-2.02.07-.29.02-.58.03-.86.05-.84.06-1.69.14-2.53.25-.06,0-.12.01-.18.02,51.17,25.59,37.44,113.7-33.48,110.37-6.31-.26-12.56-1.46-18.51-3.57-1.39-.52-2.79-1.09-4.18-1.71-.8-.37-1.61-.73-2.4-1.15l.1.06c-.31-.15-.62-.31-.94-.47.27.14.55.28.84.4-17.38-8.98-31.72-25.95-33.51-46.56,0,0,6.57-24.47,47.03-24.47,4.37,0,16.89-12.21,17.11-15.75-.06-1.16-24.82-11.01-34.47-20.52-5.16-5.08-7.61-7.53-9.78-9.37-1.17-.99-2.4-1.92-3.67-2.78-3.24-11.35-3.38-23.36-.4-34.78-13.12,6.36-24.79,15.37-34.25,26.47h-.07c-5.64-7.15-5.24-30.72-4.92-35.64-1.67.67-3.26,1.52-4.75,2.52-4.98,3.55-9.63,7.54-13.91,11.91-4.87,4.94-9.32,10.28-13.3,15.96h0c-9.15,12.96-15.64,27.62-19.09,43.11l-.19.94c-.27,1.25-1.47,7.61-1.64,8.98-1.1,6.56-1.8,13.19-2.1,19.83v.73c.07,78.58,63.83,142.23,142.41,142.16,69.2-.06,128.33-49.9,140.09-118.1.24-1.84.43-3.65.65-5.51,2.93-24.22-.24-48.79-9.23-71.47Z" fill="url(#bi)"/><path id="bk" d="m476.82,138.01c-6.18-14.88-18.72-30.94-28.54-36.01,7,13.56,11.86,28.13,14.41,43.19l.03.24c-16.09-40.11-43.37-56.28-65.65-91.49-1.13-1.78-2.25-3.56-3.35-5.45-.63-1.08-1.13-2.04-1.57-2.94-.92-1.79-1.64-3.68-2.12-5.64,0-.19-.14-.34-.32-.37-.09-.02-.18-.02-.27,0-.02,0-.05.03-.07.04s-.07.04-.1.06l.06-.1c-35.74,20.92-47.86,59.66-48.98,79.04-14.27.98-27.92,6.24-39.16,15.09-1.17-.99-2.4-1.92-3.67-2.78-3.24-11.35-3.38-23.36-.4-34.78-13.12,6.36-24.79,15.37-34.25,26.47h-.07c-5.64-7.15-5.24-30.72-4.92-35.64-1.67.67-3.26,1.52-4.75,2.52-4.98,3.55-9.63,7.54-13.91,11.91-4.87,4.94-9.32,10.28-13.3,15.96v.02-.03c-9.15,12.97-15.64,27.62-19.09,43.11l-.19.94c-.27,1.25-1.23,7.52-1.4,8.88,0,.11-.02.21-.03.31-1.25,6.47-2.02,13.03-2.31,19.61v.73c.07,78.58,63.83,142.23,142.41,142.16,69.2-.06,128.33-49.9,140.09-118.1.24-1.84.43-3.65.65-5.51,2.93-24.22-.24-48.79-9.23-71.47Zm-163.99,111.37c.66.32,1.29.66,1.97.97l.1.06c-.69-.33-1.38-.67-2.07-1.03Zm149.89-103.93v-.14l.03.15h-.03Z" fill="url(#bj)"/><path id="bm" d="m476.82,138.01c-6.18-14.88-18.72-30.94-28.54-36.01,7,13.56,11.86,28.13,14.41,43.19v.14l.03.15c10.97,31.38,9.38,65.79-4.43,96.03-16.31,34.99-55.78,70.85-117.56,69.11-66.76-1.89-125.55-51.43-136.54-116.31-2-10.23,0-15.42,1.01-23.73-1.37,6.46-2.14,13.03-2.29,19.63v.73c.07,78.58,63.83,142.23,142.41,142.16,69.2-.06,128.33-49.9,140.09-118.1.24-1.84.43-3.65.65-5.51,2.93-24.22-.24-48.79-9.23-71.47Z" fill="url(#bl)"/><path id="bo" d="m476.82,138.01c-6.18-14.88-18.72-30.94-28.54-36.01,7,13.56,11.86,28.13,14.41,43.19v.14l.03.15c10.97,31.38,9.38,65.79-4.43,96.03-16.31,34.99-55.78,70.85-117.56,69.11-66.76-1.89-125.55-51.43-136.54-116.31-2-10.23,0-15.42,1.01-23.73-1.37,6.46-2.14,13.03-2.29,19.63v.73c.07,78.58,63.83,142.23,142.41,142.16,69.2-.06,128.33-49.9,140.09-118.1.24-1.84.43-3.65.65-5.51,2.93-24.22-.24-48.79-9.23-71.47Z" fill="url(#bn)"/><path id="bq" d="m407.68,154.73c.31.22.59.43.88.65-3.57-6.34-8.02-12.14-13.22-17.24-44.22-44.23-11.59-95.9-6.09-98.52l.06-.08c-35.74,20.92-47.86,59.66-48.98,79.04,1.66-.11,3.3-.25,5-.25,25.81.05,49.62,13.95,62.34,36.41Z" fill="url(#bp)"/><path id="bs" d="m345.43,163.56c-.23,3.54-12.74,15.75-17.11,15.75-40.46,0-47.03,24.47-47.03,24.47,1.79,20.61,16.15,37.58,33.51,46.56.79.41,1.6.78,2.4,1.15,1.39.62,2.79,1.19,4.18,1.71,5.96,2.11,12.2,3.31,18.51,3.57,70.91,3.33,84.65-84.8,33.48-110.37,12.07-1.57,24.3,1.4,34.31,8.33-12.73-22.46-36.53-36.36-62.34-36.41-1.69,0-3.34.14-5,.25-14.27.98-27.92,6.24-39.16,15.09,2.17,1.84,4.62,4.29,9.78,9.37,9.65,9.51,34.42,19.36,34.47,20.52Z" fill="url(#br)"/><path id="bu" d="m345.43,163.56c-.23,3.54-12.74,15.75-17.11,15.75-40.46,0-47.03,24.47-47.03,24.47,1.79,20.61,16.15,37.58,33.51,46.56.79.41,1.6.78,2.4,1.15,1.39.62,2.79,1.19,4.18,1.71,5.96,2.11,12.2,3.31,18.51,3.57,70.91,3.33,84.65-84.8,33.48-110.37,12.07-1.57,24.3,1.4,34.31,8.33-12.73-22.46-36.53-36.36-62.34-36.41-1.69,0-3.34.14-5,.25-14.27.98-27.92,6.24-39.16,15.09,2.17,1.84,4.62,4.29,9.78,9.37,9.65,9.51,34.42,19.36,34.47,20.52Z" fill="url(#bt)"/><path id="bw" d="m294.55,128.94c1.15.73,2.1,1.37,2.94,1.95-3.24-11.35-3.38-23.36-.4-34.78-13.12,6.36-24.79,15.37-34.25,26.47.69-.02,21.33-.39,31.71,6.36Z" fill="url(#bv)"/><path id="by" d="m204.21,194.29c10.98,64.88,69.78,114.42,136.54,116.31,61.78,1.75,101.25-34.12,117.56-69.11,13.81-30.24,15.39-64.65,4.43-96.03v-.14c0-.11-.02-.17,0-.14l.03.24c5.05,32.95-11.71,64.88-37.92,86.47l-.08.18c-51.06,41.58-99.92,25.09-109.81,18.36-.69-.33-1.38-.67-2.07-1.03-29.77-14.23-42.07-41.35-39.43-64.61-14.44.21-27.64-8.1-33.7-21.2,15.89-9.73,35.69-10.53,52.31-2.1,16.85,7.65,36.02,8.4,53.42,2.1-.06-1.16-24.82-11.01-34.47-20.52-5.16-5.08-7.61-7.53-9.78-9.37-1.17-.99-2.4-1.92-3.67-2.78-.84-.58-1.8-1.2-2.94-1.95-10.38-6.75-31.02-6.38-31.7-6.36h-.07c-5.64-7.15-5.24-30.72-4.92-35.64-1.67.67-3.26,1.52-4.75,2.52-4.98,3.55-9.63,7.54-13.91,11.91-4.89,4.92-9.36,10.25-13.36,15.92v.02-.03c-9.15,12.97-15.64,27.62-19.09,43.11-.07.29-5.12,22.39-2.63,33.85Z" fill="url(#bx)"/><path id="ca" d="m395.36,138.15c5.19,5.1,9.64,10.91,13.22,17.25.78.59,1.51,1.18,2.13,1.75,32.26,29.74,15.36,71.77,14.1,74.76,26.2-21.59,42.95-53.52,37.92-86.47-16.09-40.12-43.37-56.3-65.65-91.51-1.13-1.78-2.25-3.56-3.35-5.45-.63-1.08-1.13-2.04-1.57-2.94-.92-1.79-1.64-3.68-2.12-5.64,0-.19-.14-.34-.32-.37-.09-.02-.18-.02-.27,0-.02,0-.05.03-.07.04s-.07.04-.1.06c-5.5,2.61-38.13,54.28,6.09,98.51Z" fill="url(#bz)"/><path id="cc" d="m410.69,157.13c-.62-.57-1.35-1.16-2.13-1.75-.29-.22-.58-.43-.88-.65-10.01-6.93-22.23-9.9-34.31-8.33,51.17,25.59,37.44,113.7-33.48,110.37-6.31-.26-12.56-1.46-18.51-3.57-1.39-.52-2.79-1.09-4.18-1.71-.8-.37-1.61-.73-2.4-1.15l.1.06c9.89,6.75,58.74,23.24,109.81-18.36l.08-.18c1.27-2.97,18.18-45.02-14.1-74.74Z" fill="url(#cb)"/><path id="ce" d="m281.3,203.78s6.57-24.47,47.03-24.47c4.37,0,16.89-12.21,17.11-15.75-17.4,6.3-36.57,5.55-53.42-2.1-16.62-8.43-36.42-7.63-52.31,2.1,6.06,13.11,19.27,21.41,33.7,21.2-2.64,23.26,9.66,50.38,39.43,64.61.66.32,1.29.66,1.97.97-17.37-8.98-31.72-25.95-33.51-46.56Z" fill="url(#cd)"/><path id="cg" d="m476.82,138.01c-6.18-14.88-18.72-30.94-28.54-36.01,7,13.56,11.86,28.13,14.41,43.19l.03.24c-16.09-40.11-43.37-56.28-65.65-91.49-1.13-1.78-2.25-3.56-3.35-5.45-.63-1.08-1.13-2.04-1.57-2.94-.92-1.79-1.64-3.68-2.12-5.64,0-.19-.14-.34-.32-.37-.09-.02-.18-.02-.27,0-.02,0-.05.03-.07.04s-.07.04-.1.06l.06-.1c-35.74,20.92-47.86,59.66-48.98,79.04,1.66-.11,3.3-.25,5-.25,25.81.05,49.62,13.95,62.34,36.41-10.01-6.93-22.23-9.9-34.31-8.33,51.17,25.59,37.44,113.7-33.48,110.37-6.31-.26-12.56-1.46-18.51-3.57-1.39-.52-2.79-1.09-4.18-1.71-.8-.37-1.61-.73-2.4-1.15l.1.06c-.69-.33-1.38-.67-2.07-1.03.66.32,1.29.66,1.97.97-17.37-8.98-31.72-25.95-33.51-46.56,0,0,6.57-24.47,47.03-24.47,4.37,0,16.89-12.21,17.11-15.75-.06-1.16-24.82-11.01-34.47-20.52-5.16-5.08-7.61-7.53-9.78-9.37-1.17-.99-2.4-1.92-3.67-2.78-3.24-11.35-3.38-23.36-.4-34.78-13.12,6.36-24.79,15.37-34.25,26.47h-.07c-5.64-7.15-5.24-30.72-4.92-35.64-1.67.67-3.26,1.52-4.75,2.52-4.98,3.55-9.63,7.54-13.91,11.91-4.87,4.94-9.32,10.28-13.3,15.96v.02-.03c-9.15,12.97-15.64,27.62-19.09,43.11l-.19.94c-.27,1.25-1.47,7.61-1.64,8.98,0,.1,0-.11,0,0-1.1,6.56-1.8,13.19-2.1,19.83v.73c.07,78.58,63.83,142.23,142.41,142.16,69.2-.06,128.33-49.9,140.09-118.1.24-1.84.43-3.65.65-5.51,2.93-24.22-.24-48.79-9.23-71.47Zm-14.12,7.31l.03.15-.03-.15Z" fill="url(#cf)"/><path id="ci" d="m321.06,508.26c-6.18-14.88-18.72-30.94-28.54-36.01,7,13.56,11.86,28.13,14.41,43.19l.03.24c-16.09-40.11-43.37-56.28-65.65-91.49-1.13-1.78-2.25-3.56-3.35-5.45-.63-1.08-1.13-2.04-1.57-2.94-.92-1.79-1.64-3.68-2.12-5.64,0-.19-.14-.34-.32-.37-.09-.02-.18-.02-.27,0-.02,0-.05.03-.07.04s-.07.04-.1.06l.06-.1c-35.74,20.92-47.86,59.66-48.98,79.04-14.27.98-27.92,6.24-39.16,15.09-1.17-.99-2.4-1.92-3.67-2.78-3.24-11.35-3.38-23.36-.4-34.78-13.12,6.36-24.79,15.37-34.25,26.47h-.07c-5.64-7.15-5.24-30.72-4.92-35.64-1.67.67-3.26,1.52-4.75,2.52-4.98,3.55-9.63,7.54-13.91,11.91-4.87,4.94-9.32,10.28-13.3,15.96v.02-.03c-9.15,12.97-15.64,27.62-19.09,43.11l-.19.94c-.27,1.25-1.23,7.52-1.4,8.88,0,.11-.02.21-.03.31-1.25,6.47-2.02,13.03-2.31,19.61v.73c.07,78.58,63.83,142.23,142.41,142.16,69.2-.06,128.33-49.9,140.09-118.1.24-1.84.43-3.65.65-5.51,2.93-24.22-.24-48.79-9.23-71.47Zm-163.99,111.37c.66.32,1.29.66,1.97.97l.1.06c-.69-.33-1.38-.67-2.07-1.03Zm149.89-103.93v-.14l.03.15h-.03Z" fill="url(#ch)"/><path id="ck" d="m321.06,508.26c-6.18-14.88-18.72-30.94-28.54-36.01,7,13.56,11.86,28.13,14.41,43.19v.14l.03.15c10.97,31.38,9.38,65.79-4.43,96.03-16.31,34.99-55.78,70.85-117.56,69.11-66.76-1.89-125.55-51.43-136.54-116.31-2-10.23,0-15.42,1.01-23.73-1.37,6.46-2.14,13.03-2.29,19.63v.73c.07,78.58,63.83,142.23,142.41,142.16,69.2-.06,128.33-49.9,140.09-118.1.24-1.84.43-3.65.65-5.51,2.93-24.22-.24-48.79-9.23-71.47Z" fill="url(#cj)"/><path id="cm" d="m321.06,508.26c-6.18-14.88-18.72-30.94-28.54-36.01,7,13.56,11.86,28.13,14.41,43.19v.14l.03.15c10.97,31.38,9.38,65.79-4.43,96.03-16.31,34.99-55.78,70.85-117.56,69.11-66.76-1.89-125.55-51.43-136.54-116.31-2-10.23,0-15.42,1.01-23.73-1.37,6.46-2.14,13.03-2.29,19.63v.73c.07,78.58,63.83,142.23,142.41,142.16,69.2-.06,128.33-49.9,140.09-118.1.24-1.84.43-3.65.65-5.51,2.93-24.22-.24-48.79-9.23-71.47Z" fill="url(#cl)"/><path id="co" d="m251.92,524.98c.31.22.59.43.88.65-3.57-6.34-8.02-12.14-13.22-17.24-44.22-44.23-11.59-95.9-6.09-98.52l.06-.08c-35.74,20.92-47.86,59.66-48.98,79.04,1.66-.11,3.3-.25,5-.25,25.81.05,49.62,13.95,62.34,36.41Z" fill="url(#cn)"/><path id="cq" d="m189.67,533.81c-.23,3.54-12.74,15.75-17.11,15.75-40.46,0-47.03,24.47-47.03,24.47,1.79,20.61,16.15,37.58,33.51,46.56.79.41,1.6.78,2.4,1.15,1.39.62,2.79,1.19,4.18,1.71,5.96,2.11,12.2,3.31,18.51,3.57,70.91,3.33,84.65-84.8,33.48-110.37,12.07-1.57,24.3,1.4,34.31,8.33-12.73-22.46-36.53-36.36-62.34-36.41-1.69,0-3.34.14-5,.25-14.27.98-27.92,6.24-39.16,15.09,2.17,1.84,4.62,4.29,9.78,9.37,9.65,9.51,34.42,19.36,34.47,20.52Z" fill="url(#cp)"/><path id="cs" d="m189.67,533.81c-.23,3.54-12.74,15.75-17.11,15.75-40.46,0-47.03,24.47-47.03,24.47,1.79,20.61,16.15,37.58,33.51,46.56.79.41,1.6.78,2.4,1.15,1.39.62,2.79,1.19,4.18,1.71,5.96,2.11,12.2,3.31,18.51,3.57,70.91,3.33,84.65-84.8,33.48-110.37,12.07-1.57,24.3,1.4,34.31,8.33-12.73-22.46-36.53-36.36-62.34-36.41-1.69,0-3.34.14-5,.25-14.27.98-27.92,6.24-39.16,15.09,2.17,1.84,4.62,4.29,9.78,9.37,9.65,9.51,34.42,19.36,34.47,20.52Z" fill="url(#cr)"/><path id="cu" d="m138.79,499.19c1.15.73,2.1,1.37,2.94,1.95-3.24-11.35-3.38-23.36-.4-34.78-13.12,6.36-24.79,15.37-34.25,26.47.69-.02,21.33-.39,31.71,6.36Z" fill="url(#ct)"/><path id="cw" d="m48.44,564.54c10.98,64.88,69.78,114.42,136.54,116.31,61.78,1.75,101.25-34.12,117.56-69.11,13.81-30.24,15.39-64.65,4.43-96.03v-.14c0-.11-.02-.17,0-.14l.03.24c5.05,32.95-11.71,64.88-37.92,86.47l-.08.18c-51.06,41.58-99.92,25.09-109.81,18.36-.69-.33-1.38-.67-2.07-1.03-29.77-14.23-42.07-41.35-39.43-64.61-14.44.21-27.64-8.1-33.7-21.2,15.89-9.73,35.69-10.53,52.31-2.1,16.85,7.65,36.02,8.4,53.42,2.1-.06-1.16-24.82-11.01-34.47-20.52-5.16-5.08-7.61-7.53-9.78-9.37-1.17-.99-2.4-1.92-3.67-2.78-.84-.58-1.8-1.2-2.94-1.95-10.38-6.75-31.02-6.38-31.7-6.36h-.07c-5.64-7.15-5.24-30.72-4.92-35.64-1.67.67-3.26,1.52-4.75,2.52-4.98,3.55-9.63,7.54-13.91,11.91-4.89,4.92-9.36,10.25-13.36,15.92v.02-.03c-9.15,12.97-15.64,27.62-19.09,43.11-.07.29-5.12,22.39-2.63,33.85Z" fill="url(#cv)"/><path id="cy" d="m239.6,508.4c5.19,5.1,9.64,10.91,13.22,17.25.78.59,1.51,1.18,2.13,1.75,32.26,29.74,15.36,71.77,14.1,74.76,26.2-21.59,42.95-53.52,37.92-86.47-16.09-40.12-43.37-56.3-65.65-91.51-1.13-1.78-2.25-3.56-3.35-5.45-.63-1.08-1.13-2.04-1.57-2.94-.92-1.79-1.64-3.68-2.12-5.64,0-.19-.14-.34-.32-.37-.09-.02-.18-.02-.27,0-.02,0-.05.03-.07.04s-.07.04-.1.06c-5.5,2.61-38.13,54.28,6.09,98.51Z" fill="url(#cx)"/><path id="da" d="m254.92,527.38c-.62-.57-1.35-1.16-2.13-1.75-.29-.22-.58-.43-.88-.65-10.01-6.93-22.23-9.9-34.31-8.33,51.17,25.59,37.44,113.7-33.48,110.37-6.31-.26-12.56-1.46-18.51-3.57-1.39-.52-2.79-1.09-4.18-1.71-.8-.37-1.61-.73-2.4-1.15l.1.06c9.89,6.75,58.74,23.24,109.81-18.36l.08-.18c1.27-2.97,18.18-45.02-14.1-74.74Z" fill="url(#cz)"/><path id="dc" d="m125.54,574.03s6.57-24.47,47.03-24.47c4.37,0,16.89-12.21,17.11-15.75-17.4,6.3-36.57,5.55-53.42-2.1-16.62-8.43-36.42-7.63-52.31,2.1,6.06,13.11,19.27,21.41,33.7,21.2-2.64,23.26,9.66,50.38,39.43,64.61.66.32,1.29.66,1.97.97-17.37-8.98-31.72-25.95-33.51-46.56Z" fill="url(#db)"/><path id="de" d="m321.06,508.26c-6.18-14.88-18.72-30.94-28.54-36.01,7,13.56,11.86,28.13,14.41,43.19l.03.24c-16.09-40.11-43.37-56.28-65.65-91.49-1.13-1.78-2.25-3.56-3.35-5.45-.63-1.08-1.13-2.04-1.57-2.94-.92-1.79-1.64-3.68-2.12-5.64,0-.19-.14-.34-.32-.37-.09-.02-.18-.02-.27,0-.02,0-.05.03-.07.04s-.07.04-.1.06l.06-.1c-35.74,20.92-47.86,59.66-48.98,79.04,1.66-.11,3.3-.25,5-.25,25.81.05,49.62,13.95,62.34,36.41-10.01-6.93-22.23-9.9-34.31-8.33,51.17,25.59,37.44,113.7-33.48,110.37-6.31-.26-12.56-1.46-18.51-3.57-1.39-.52-2.79-1.09-4.18-1.71-.8-.37-1.61-.73-2.4-1.15l.1.06c-.69-.33-1.38-.67-2.07-1.03.66.32,1.29.66,1.97.97-17.37-8.98-31.72-25.95-33.51-46.56,0,0,6.57-24.47,47.03-24.47,4.37,0,16.89-12.21,17.11-15.75-.06-1.16-24.82-11.01-34.47-20.52-5.16-5.08-7.61-7.53-9.78-9.37-1.17-.99-2.4-1.92-3.67-2.78-3.24-11.35-3.38-23.36-.4-34.78-13.12,6.36-24.79,15.37-34.25,26.47h-.07c-5.64-7.15-5.24-30.72-4.92-35.64-1.67.67-3.26,1.52-4.75,2.52-4.98,3.55-9.63,7.54-13.91,11.91-4.87,4.94-9.32,10.28-13.3,15.96v.02-.03c-9.15,12.97-15.64,27.62-19.09,43.11l-.19.94c-.27,1.25-1.47,7.61-1.64,8.98,0,.1,0-.11,0,0-1.1,6.56-1.8,13.19-2.1,19.83v.73c.07,78.58,63.83,142.23,142.41,142.16,69.2-.06,128.33-49.9,140.09-118.1.24-1.84.43-3.65.65-5.51,2.93-24.22-.24-48.79-9.23-71.47Zm-14.12,7.31l.03.15-.03-.15Z" fill="url(#dd)"/><path d="m903.04,69.02c-7.71,8.98-11.31,29.2-3.48,49.69,7.82,20.49,19.81,16.04,27.28,36.94,9.86,27.57,5.27,64.62,5.27,64.62,0,0,11.86,34.34,20.12-2.14,18.29-68.52-49.2-132.24-49.2-149.11Z" fill="url(#df)"/><path id="dh" d="m808.91,353.49c79,0,143-64.34,143-143.68s-64-143.68-142.92-143.68-142.92,64.34-142.92,143.68c-.15,79.42,63.92,143.68,142.84,143.68Z" fill="url(#dg)"/><path d="m916.05,298.4c-3.09,2.18-6.33,4.14-9.7,5.86,4.46-6.54,8.58-13.31,12.34-20.28,3.05-3.37,5.84-6.65,8.11-10.2,1.11-1.74,2.36-3.89,3.68-6.38,8.03-14.46,16.88-37.87,17.13-61.91v-.06c0-.59,0-1.18,0-1.78.04-6.04-.58-12.06-1.84-17.96.06.46.12.92.18,1.38-.07-.35-.13-.71-.21-1.07.12.66.21,1.29.31,1.93,1.64,13.92.47,27.5-5.37,37.51-.09.15-.19.28-.28.43,3.03-15.22,4.05-32.02.67-48.84,0,0-1.35-8.18-11.4-33-5.78-14.29-16.05-26-25.13-34.54-7.95-9.84-15.18-16.44-19.16-20.64-8.32-8.76-11.8-15.32-13.24-19.61-1.24-.62-17.12-16.04-18.38-16.63-6.93,10.74-28.72,44.35-18.36,75.75,4.7,14.23,16.58,29,29.01,37.28.55.62,7.4,8.07,10.66,24.86,3.36,17.34,1.6,30.88-5.33,50.89-8.15,17.56-29.01,34.92-48.55,36.69-41.77,3.8-57.07-20.97-57.07-20.97,14.93,5.97,31.43,4.72,41.47-1.47,10.12-6.26,16.23-10.9,21.2-9.07,4.9,1.82,8.79-3.46,5.3-8.94-5.52-8.5-15.59-12.89-25.58-11.14-10.13,1.65-19.4,9.67-32.67,1.9-.86-.5-1.69-1.04-2.49-1.63-.87-.58,2.84.88,1.98.22-2.58-1.4-7.15-4.46-8.34-5.55-.2-.18,2,.7,1.81.52-12.41-10.22-10.86-17.12-10.47-21.44.31-3.46,2.57-7.9,6.36-9.7,1.83,1,2.98,1.76,2.98,1.76,0,0-.78-1.6-1.21-2.44.15-.06.29-.05.44-.11,1.5.73,4.82,2.61,6.57,3.76,2.28,1.61,3,3.04,3,3.04,0,0,.6-.33.16-1.73-.16-.57-.85-2.4-3.11-4.24l.14.02c1.35.77,2.63,1.66,3.82,2.65.64-2.31,1.78-4.73,1.53-9.05-.15-3.04-.08-3.82-.62-5-.48-1.01.27-1.4,1.1-.35-.14-.82-.38-1.62-.71-2.38v-.08c1.05-3.62,21.99-13.03,23.52-14.13,2.51-1.77,4.61-4.06,6.16-6.7,1.17-1.86,2.04-4.46,2.25-8.41.11-2.85-1.21-4.75-22.39-6.96-5.79-.57-9.19-4.77-11.12-8.64-.35-.83-.71-1.59-1.07-2.35-.34-.88-.62-1.79-.82-2.72,3.46-9.95,9.28-18.35,17.84-24.71.47-.42-1.86.11-1.4-.32.54-.5,4.09-1.93,4.76-2.25.82-.39-3.51-2.22-7.32-1.78-3.89.44-4.71.9-6.79,1.78.86-.86,3.6-1.98,2.96-1.97-4.19.64-9.4,3.08-13.85,5.84,0-.48.08-.96.27-1.4-2.07.88-7.17,4.44-8.65,7.45.06-.58.09-1.16.09-1.74-1.58,1.32-3.01,2.81-4.25,4.45l-.08.07c-12.03-4.85-22.62-5.16-31.59-2.99-1.96-1.97-2.92-.53-7.38-10.33-.3-.59.23.58,0,0-.73-1.9.45,2.54,0,0-7.5,5.92-17.37,12.63-22.11,17.36-.06.19,5.53-1.58,0,0-1.94.55-1.8,1.7-2.1,12.08-.07.79,0,1.67-.07,2.38-3.78,4.82-6.36,8.9-7.34,11.02-4.89,8.43-10.28,21.58-15.51,42.38,2.3-5.64,5.08-11.07,8.31-16.24-4.34,11.04-8.55,28.37-9.39,55.07,1.05-5.51,2.4-10.96,4.04-16.32-1.03,22.15,2.79,44.25,11.19,64.77,3.01,7.35,7.98,18.51,16.44,30.73,26.59,27.97,64.09,45.39,105.61,45.39,43.35,0,82.28-18.97,109.03-49.09Z" fill="url(#di)"/><path d="m883.98,318.72c52.47-6.08,75.69-60.14,45.87-61.21-26.94-.86-70.72,64.07-45.87,61.21Z" fill="url(#dj)"/><path d="m933.62,246.47c36.1-21.01,26.69-66.39,26.69-66.39,0,0-13.93,16.18-23.4,41.98-9.35,25.55-24.99,37.09-3.29,24.41Z" fill="url(#dk)"/><path d="m819.03,345.57c50.33,16.06,93.58-23.59,66.92-36.83-24.24-11.94-90.8,29.23-66.92,36.83Z" fill="url(#dl)"/><path d="m937.37,265.74c1.22-1.73,2.88-7.26,4.34-9.73,8.89-14.34,8.95-25.78,8.95-26.04,5.37-26.81,4.88-37.75,1.58-58-2.66-16.3-14.28-39.65-24.34-50.9-10.37-11.59-3.06-7.81-13.11-16.27-8.8-9.76-17.34-19.42-21.99-23.31-33.59-28.08-32.83-34.05-32.19-35.06-.11.12-.27.3-.47.53-.4-1.59-.68-2.92-.68-2.92,0,0-18.36,18.36-22.23,48.96-2.52,19.98,4.96,40.81,15.78,54.12,5.64,6.9,12.01,13.16,19.01,18.68h0c8.18,11.74,12.69,26.24,12.69,41.84,0,39.06-31.68,70.72-70.76,70.72-5.33,0-10.64-.59-15.83-1.78-18.44-3.51-29.09-12.81-34.4-19.13-3.04-3.62-4.34-6.26-4.34-6.26,16.52,5.92,34.79,4.68,45.89-1.46,11.19-6.21,17.97-10.81,23.46-8.99,5.42,1.81,9.73-3.44,5.86-8.87-3.79-5.43-13.66-13.2-28.31-11.04-11.21,1.63-21.47,9.59-36.16,1.88-.95-.49-1.87-1.03-2.76-1.62-.97-.57,3.15.87,2.19.22-2.86-1.39-7.92-4.42-9.23-5.5-.22-.18,2.22.7,2,.52-13.73-10.13-12.02-16.97-11.58-21.27.35-3.43,2.84-7.83,7.04-9.62,2.03.99,3.29,1.75,3.29,1.75,0,0-.87-1.58-1.33-2.42.16-.06.32-.05.48-.11,1.66.72,5.34,2.59,7.28,3.73,2.52,1.59,3.33,3.01,3.33,3.01,0,0,.66-.33.17-1.72-.18-.57-.94-2.38-3.44-4.21l.16.02c1.48.76,2.9,1.64,4.23,2.63.7-2.29,1.97-4.69,1.69-8.97-.17-3.01-.09-3.79-.68-4.96-.53-1,.3-1.39,1.22-.35-.16-.82-.42-1.61-.79-2.37v-.08c1.16-3.59,24.34-12.93,26.03-14.02,2.72-1.71,5.04-3.97,6.82-6.65,1.29-1.84,2.26-4.42,2.5-8.34.08-1.77-.46-3.16-6.6-4.5-3.68-.8-9.39-1.58-18.18-2.41-6.41-.57-10.17-4.73-12.31-8.57-.39-.83-.79-1.58-1.19-2.33-.38-.87-.68-1.77-.91-2.69,3.84-10.04,10.74-18.62,19.74-24.5.52-.42-2.06.11-1.55-.31.6-.49,4.53-1.91,5.27-2.23.91-.38-3.88-2.2-8.1-1.76-4.3.43-5.22.89-7.51,1.77.95-.85,3.98-1.97,3.27-1.96-4.64.64-10.4,3.05-15.33,5.79,0-.48.09-.96.3-1.39-2.3.87-7.94,4.4-9.58,7.39.07-.57.1-1.15.09-1.72-1.73,1.29-3.31,2.77-4.7,4.41l-.09.07c-13.32-4.81-25.04-5.12-34.96-2.96-2.17-1.95-5.66-4.9-10.6-14.62-.34-.59-.52,1.21-.77.63-1.92-4.45-3.08-11.74-2.89-16.77,0,0-3.97,1.81-7.25,9.36-.61,1.36-1,2.11-1.39,2.86-.18.22.41-2.48.31-2.33-.57.97-2.05,2.32-2.7,4.06-.45,1.3-1.07,2.02-1.47,3.64l-.09.15c-.03-.48.12-1.96,0-1.65-1.54,3.11-2.86,6.32-3.96,9.61-1.77,5.81-3.83,13.73-4.15,24.02-.08.78,0,1.65-.08,2.36-4.19,4.78-7.04,8.83-8.12,10.93-5.41,8.37-11.38,21.4-17.16,42.03,2.57-5.63,5.65-11.02,9.19-16.1-4.81,10.95-9.46,28.14-10.39,54.61,1.17-5.48,2.66-10.88,4.47-16.18-.83,17.65,1.23,39.54,12.39,64.23,6.63,14.52,21.88,44.02,59.15,67.04h0s12.68,9.44,34.47,16.51c1.61.58,3.24,1.16,4.91,1.72-.52-.21-1.03-.43-1.52-.66,14.51,4.35,29.57,6.56,44.71,6.57,56.43.05,73.08-22.61,73.08-22.61,0,0-.06.04-.17.12.8-.75,1.56-1.53,2.3-2.34-8.9,8.41-29.22,8.97-36.82,8.36,12.96-3.81,21.48-7.02,38.07-13.37,1.94-.72,3.93-1.54,5.95-2.46.22-.1.44-.2.66-.3.4-.19.8-.36,1.21-.56,8.08-3.81,15.68-8.56,22.63-14.17,16.65-13.3,20.28-26.27,22.17-34.82-.26.82-1.09,2.73-1.67,3.97-4.29,9.18-13.8,14.81-24.13,19.63,4.92-6.45,9.47-13.16,13.65-20.11,3.37-3.34,4.42-8.58,6.94-12.09Z" fill="url(#dm)"/><path d="m917.1,297.55c6.79-7.49,12.89-16.05,17.51-25.76,11.89-24.99,30.27-66.55,15.79-109.95-11.44-34.3-27.15-53.06-47.09-71.38-32.39-29.75-41.43-43.04-41.43-50.94,0,0-37.4,41.69-21.18,85.17,16.22,43.48,49.44,41.89,71.41,87.26,25.86,53.39-20.92,111.66-59.61,127.96,2.37-.53,86-19.45,90.4-67.29-.1.88-1.98,14.11-25.79,24.92Z" fill="url(#dn)"/><path d="m808.76,142.41c.13-2.83-1.34-4.72-24.7-6.91-9.61-.89-13.29-9.77-14.41-13.51-3.42,8.88-4.83,18.2-4.07,29.47.52,7.38,5.48,15.31,7.85,19.96,0,0,.53-.68.77-.94,4.47-4.65,23.17-11.73,24.93-12.74,1.94-1.22,9.31-6.61,9.64-15.33Z" fill="url(#do)"/><path d="m705.9,89.93c-.34-.59-.52,1.21-.77.63-1.92-4.45-3.09-11.66-2.81-16.76,0,0-3.97,1.81-7.25,9.36-.61,1.36-1,2.11-1.39,2.86-.18.22.41-2.48.31-2.33-.57.97-2.05,2.32-2.69,3.99-.53,1.37-1.08,2.1-1.49,3.79-.13.46.13-2.04.02-1.73-7.64,14.76-9.1,37.08-8.29,36.14,16.26-17.36,34.9-21.48,34.9-21.48-1.98-1.46-6.29-5.68-10.53-14.46h0Z" fill="url(#dp)"/><path d="m767.6,271.49c-22.46-9.59-48-23.11-47.03-53.84,1.31-40.47,37.74-32.47,37.74-32.47-1.37.33-5.05,2.95-6.35,5.74-1.38,3.49-3.89,11.36,3.72,19.62,11.95,12.95-24.55,30.72,31.78,64.29,1.42.77-13.2-.46-19.86-3.34h0Z" fill="url(#dq)"/><path d="m759.62,251.33c15.93,5.54,34.48,4.57,45.59-1.56,7.44-4.14,16.98-10.77,22.85-9.13-5.08-2.01-8.93-2.95-13.56-3.18-.79,0-1.73-.02-2.59-.1-1.7,0-3.39.09-5.08.28-2.87.26-6.05,2.07-8.93,1.78-.16-.02,2.8-1.22,2.56-1.16-1.53.32-3.19.39-4.95.61-1.12.12-2.08.26-3.19.31-33.17,2.81-61.21-17.98-61.21-17.98-2.39,8.04,10.68,23.93,28.52,30.14h0Z" fill="url(#dr)"/><path d="m917.04,297.76c33.55-32.94,50.53-72.99,43.35-117.91,0,0,2.87,23.03-8,46.59,5.22-23,5.83-51.58-8.05-81.17-18.52-39.5-48.98-60.29-60.61-68.96-17.62-13.14-24.92-26.52-25.05-29.28-5.26,10.78-21.19,47.74-1.71,79.57,18.25,29.82,46.99,38.67,67.11,66.02,37.07,50.39-7.04,105.14-7.04,105.14Z" fill="url(#ds)"/><path d="m912.23,212.04c-11.73-24.22-26.36-34.79-40.21-46.24,1.61,2.25,2.01,3.05,2.9,4.51,12.19,12.99,30.15,44.67,17.11,84.43-24.56,74.86-122.78,39.61-133.08,29.7,4.17,43.32,76.68,64.06,123.89,35.96,26.87-25.43,48.6-68.67,29.38-108.37Z" fill="url(#dt)"/></svg>